<svg width="72" height="89" viewBox="0 0 72 89" fill="none" xmlns="http://www.w3.org/2000/svg">
<path d="M1.81252 0.00219825C1.31524 0.0490653 0.85349 0.28029 0.518078 0.6504C0.182666 1.02051 -0.00213513 1.50272 1.86154e-05 2.0022V72.0022C7.16226e-05 72.5326 0.210802 73.0413 0.585864 73.4164C0.960925 73.7914 1.4696 74.0021 2.00002 74.0022H27.8438C31.3542 82.2184 39.5153 88.0022 49 88.0022C58.1657 88.0022 66.1247 82.6394 69.8125 74.8459C69.955 74.6071 70.046 74.3412 70.0799 74.0651C70.1138 73.7891 70.0898 73.509 70.0093 73.2428C69.9289 72.9766 69.7938 72.7301 69.6127 72.519C69.4316 72.3079 69.2085 72.137 68.9576 72.017C68.7067 71.897 68.4336 71.8306 68.1556 71.8222C67.8776 71.8137 67.6009 71.8633 67.3432 71.9677C67.0855 72.0722 66.8524 72.2293 66.6588 72.4289C66.4651 72.6286 66.3153 72.8664 66.2188 73.1272C63.1775 79.5543 56.6113 84.0022 49 84.0022C38.4829 84.0022 30 75.5193 30 65.0022C30 54.4851 38.4829 46.0022 49 46.0022C59.5171 46.0022 68 54.4851 68 65.0022C68.0445 65.5019 68.2745 65.9669 68.6446 66.3055C69.0148 66.6442 69.4983 66.832 70 66.832C70.5017 66.832 70.9852 66.6442 71.3554 66.3055C71.7255 65.9669 71.9555 65.5019 72 65.0022C72 54.0403 64.2824 44.854 54 42.5647V18.0022C54.0021 17.7351 53.9506 17.4703 53.8486 17.2234C53.7466 16.9765 53.5962 16.7525 53.4063 16.5647L37.4063 0.564698C37.0294 0.200114 36.5244 -0.00188342 36 0.00219825H2.00002C1.93755 -0.000732751 1.87498 -0.000732751 1.81252 0.00219825ZM4.00002 4.0022H34V18.0022C34.0001 18.5326 34.2108 19.0413 34.5859 19.4164C34.9609 19.7914 35.4696 20.0021 36 20.0022H50V42.0334C49.6697 42.0193 49.3337 42.0022 49 42.0022C46.5982 42.0022 44.3031 42.4097 42.125 43.0959C41.933 43.035 41.7328 43.0034 41.5313 43.0022H11C10.9376 42.9993 10.875 42.9993 10.8125 43.0022C10.5498 43.0145 10.2921 43.0783 10.0542 43.1902C9.81617 43.3021 9.60255 43.4597 9.4255 43.6541C9.24845 43.8486 9.11143 44.076 9.02227 44.3234C8.93311 44.5708 8.89356 44.8333 8.90587 45.096C8.91818 45.3586 8.98212 45.6163 9.09403 45.8543C9.20594 46.0923 9.36363 46.3058 9.55809 46.4829C9.75256 46.6599 9.97999 46.7968 10.2274 46.886C10.4748 46.9751 10.7373 47.0146 11 47.0022H34.7188C32.924 48.4275 31.3649 50.1112 30.0625 52.0022H11C10.9376 51.9993 10.875 51.9993 10.8125 52.0022C10.5498 52.0145 10.2921 52.0783 10.0542 52.1902C9.81617 52.3021 9.60255 52.4597 9.4255 52.6541C9.24845 52.8486 9.11143 53.076 9.02227 53.3234C8.93311 53.5708 8.89356 53.8333 8.90587 54.096C8.91818 54.3586 8.98212 54.6163 9.09403 54.8543C9.20594 55.0923 9.36363 55.3058 9.55809 55.4829C9.75256 55.6599 9.97999 55.7968 10.2274 55.886C10.4748 55.9751 10.7373 56.0146 11 56.0022H27.8438C27.1669 57.5864 26.6822 59.2601 26.375 61.0022H11C10.9376 60.9993 10.875 60.9993 10.8125 61.0022C10.5498 61.0145 10.2921 61.0783 10.0542 61.1902C9.81617 61.3021 9.60255 61.4597 9.4255 61.6541C9.24845 61.8486 9.11143 62.076 9.02227 62.3234C8.93311 62.5708 8.89356 62.8333 8.90587 63.096C8.91818 63.3586 8.98212 63.6163 9.09403 63.8543C9.20594 64.0923 9.36363 64.3058 9.55809 64.4829C9.75256 64.6599 9.97999 64.7968 10.2274 64.886C10.4748 64.9751 10.7373 65.0146 11 65.0022H26C26 66.7191 26.204 68.3917 26.5625 70.0022H4.00002V4.0022ZM38 6.8147L47.1875 16.0022H38V6.8147ZM10.8125 34.0022C10.5498 34.0145 10.2921 34.0783 10.0542 34.1902C9.81617 34.3021 9.60255 34.4597 9.4255 34.6541C9.24845 34.8486 9.11143 35.076 9.02227 35.3234C8.93311 35.5708 8.89356 35.8333 8.90587 36.096C8.91818 36.3586 8.98212 36.6163 9.09403 36.8543C9.20594 37.0923 9.36363 37.3058 9.55809 37.4829C9.75256 37.6599 9.97999 37.7968 10.2274 37.886C10.4748 37.9751 10.7373 38.0146 11 38.0022H43C43.265 38.0059 43.5282 37.957 43.7741 37.8582C44.02 37.7593 44.2439 37.6126 44.4326 37.4265C44.6214 37.2404 44.7712 37.0187 44.8735 36.7742C44.9758 36.5297 45.0285 36.2672 45.0285 36.0022C45.0285 35.7371 44.9758 35.4747 44.8735 35.2302C44.7712 34.9857 44.6214 34.764 44.4326 34.5779C44.2439 34.3918 44.02 34.2451 43.7741 34.1462C43.5282 34.0474 43.265 33.9985 43 34.0022H11C10.9376 33.9993 10.875 33.9993 10.8125 34.0022ZM48.7813 53.9709C48.2842 54.0256 47.8256 54.2644 47.4959 54.6404C47.1662 55.0164 46.9893 55.5022 47 56.0022V63.0022H40C39.9376 62.9993 39.875 62.9993 39.8125 63.0022C39.5498 63.0145 39.2921 63.0783 39.0542 63.1902C38.8162 63.3021 38.6026 63.4597 38.4255 63.6541C38.2484 63.8486 38.1114 64.076 38.0223 64.3234C37.9331 64.5708 37.8936 64.8333 37.9059 65.096C37.9182 65.3586 37.9821 65.6163 38.094 65.8543C38.2059 66.0923 38.3636 66.3058 38.5581 66.4829C38.7526 66.6599 38.98 66.7968 39.2274 66.886C39.4748 66.9751 39.7373 67.0146 40 67.0022H47V74.0022C46.9963 74.2672 47.0452 74.5303 47.1441 74.7763C47.2429 75.0222 47.3896 75.2461 47.5757 75.4348C47.7618 75.6235 47.9835 75.7734 48.228 75.8757C48.4726 75.978 48.735 76.0307 49 76.0307C49.2651 76.0307 49.5275 75.978 49.772 75.8757C50.0165 75.7734 50.2382 75.6235 50.4243 75.4348C50.6104 75.2461 50.7571 75.0222 50.856 74.7763C50.9548 74.5303 51.0038 74.2672 51 74.0022V67.0022H58C58.265 67.0059 58.5282 66.957 58.7741 66.8582C59.02 66.7593 59.2439 66.6126 59.4326 66.4265C59.6214 66.2404 59.7712 66.0187 59.8735 65.7742C59.9758 65.5297 60.0285 65.2672 60.0285 65.0022C60.0285 64.7371 59.9758 64.4747 59.8735 64.2302C59.7712 63.9857 59.6214 63.764 59.4326 63.5779C59.2439 63.3918 59.02 63.2451 58.7741 63.1462C58.5282 63.0474 58.265 62.9984 58 63.0022H51V56.0022C51.0062 55.7175 50.9514 55.4347 50.8395 55.1729C50.7275 54.911 50.561 54.6761 50.3509 54.4838C50.1409 54.2915 49.8922 54.1463 49.6215 54.0578C49.3508 53.9694 49.0643 53.9398 48.7813 53.9709V53.9709Z" fill="black"/>
</svg>
