<svg width="280" height="271" viewBox="0 0 280 271" fill="none" xmlns="http://www.w3.org/2000/svg">
<g id="Frame 1">
<g id="Group 1">
<g id="Group">
<path id="Vector" d="M114.844 123.99C114.819 124.142 115.022 124.229 115.099 124.086C115.145 124.002 115.211 123.924 115.29 123.853C114.937 126.395 118.328 126.286 118.11 124.148C118.018 123.245 115.16 122.021 114.844 123.99ZM116.027 123.504C116.596 123.389 117.188 123.566 117.153 124.249C117.117 124.94 116.091 125.06 116.027 123.504Z" fill="white"/>
<path id="Vector_2" d="M129.112 124.984C129.463 123.975 128.967 122.895 128.144 122.283C127.136 121.534 125.743 122.154 125.988 123.109C125.972 123.123 125.954 123.135 125.94 123.154C124.057 125.787 128.215 127.56 129.112 124.984ZM127.815 124.828C127.02 125.555 126.401 124.043 126.545 123.411C126.572 123.294 126.528 123.197 126.455 123.129C126.463 123.107 126.473 123.087 126.475 123.06C126.6 121.88 128.889 123.848 127.815 124.828Z" fill="white"/>
<path id="Vector_3" d="M117.316 138.529C117.698 137.96 117.038 137.162 116.31 137.558C115.895 137.783 115.827 138.375 116.149 138.705C116.463 139.028 117.002 138.999 117.316 138.529Z" fill="white"/>
<path id="Vector_4" d="M118.972 139.479C119.179 139.502 119.385 139.524 119.592 139.546C120.079 139.439 120.325 138.99 120.25 138.57C118.659 136.831 117.878 139.068 118.972 139.479Z" fill="white"/>
<path id="Vector_5" d="M123.338 138.327C122.653 137.411 121.078 138.12 121.321 139.245C121.489 140.018 124.32 139.64 123.338 138.327Z" fill="white"/>
<path id="Vector_6" d="M124.993 140.093C125.934 140.283 126.819 139.496 126.828 138.733C126.85 136.891 123.7 137.2 124.078 138.758C123.959 139.4 124.415 139.977 124.993 140.093Z" fill="white"/>
<path id="Vector_7" d="M127.623 136.478C127.459 136.592 127.338 136.746 127.269 136.916C126.904 137.22 126.854 137.738 127.044 138.122C127.43 138.904 128.432 138.899 129.015 138.353C130.099 137.338 128.768 135.683 127.623 136.478Z" fill="white"/>
<path id="Vector_8" d="M130.425 136.581C131.406 136.552 131.984 135.312 131.244 134.602C130.722 134.101 129.865 134.22 129.601 134.842C129.304 135.109 129.217 135.568 129.416 135.983C129.597 136.361 130.014 136.593 130.425 136.581Z" fill="white"/>
<path id="Vector_9" d="M132.044 134.032C131.998 133.446 131.058 133.45 131.109 134.105C131.13 134.376 132.094 134.687 132.044 134.032Z" fill="white"/>
<path id="Vector_10" d="M171.035 150.97C168.893 150.482 166.827 150.93 164.979 151.044C165.813 150.258 166.624 149.451 167.418 148.617C168.457 147.525 169.83 146.379 170.383 144.947C170.523 144.586 170.2 144.151 169.803 144.303C167.741 145.089 164.577 149.212 163.4 151.039C158.817 150.74 155.665 148.409 152.346 148.473C154.324 147.02 156.904 145.769 157.599 143.53C157.707 143.183 157.391 142.664 156.98 142.88C155.699 143.557 154.662 144.597 153.491 145.449C148.206 149.292 145.972 150.434 144.199 152.318C143.306 151.228 140.009 147.501 138.729 146.881C140.013 145.793 141.078 144.395 140.837 142.607C140.585 140.728 139.227 139.254 137.618 138.427C139.036 136.283 140.145 133.334 140.426 130.411C140.565 130.843 141.083 131.13 141.537 130.732C142.838 129.591 142.936 128.329 142.404 127.099C143.1 124.347 142.161 121.766 140.49 119.641C141.003 110.696 134.218 102.372 125.535 101.116C126.14 100.881 126.637 100.497 126.807 99.8907C128.651 99.2893 129.65 96.9798 127.894 95.7733C129.168 92.5384 126.938 90.7937 125.211 91.6261C124.69 90.4989 123.35 90.2085 121.981 90.3185C120.203 90.4615 119.075 91.1499 118.506 92.8155C118.495 93.2338 118.389 93.6271 118.19 93.995C118.182 94.5105 117.944 94.7312 117.475 94.6574C117.041 94.9818 116.009 95.1081 115.963 97.3382C115.934 98.7463 116.369 100.391 117.816 100.501C117.805 100.962 118.502 101.378 119.007 101.565C111.378 103.82 106.262 111.9 104.456 119.444C104.372 119.792 104.917 119.972 105.051 119.637C107.563 113.356 110.238 106.852 117.386 103.694C114.753 106.037 112.973 110.029 113.384 113.328C111.272 114.133 109.315 115.327 107.601 117.026C105.708 118.904 101.258 124.165 103.954 126.99C103.997 127.281 104.18 127.504 104.555 127.626C104.81 127.709 105.01 127.315 104.758 127.187C104.427 127.018 104.706 126.451 105.237 125.762C104.821 130.378 105.754 134.41 108.193 138.117C106.687 139.679 105.631 142.331 105.928 144.588C103.106 145.984 100.835 148.23 98.8561 150.694C98.8274 150.582 98.7556 150.477 98.6287 150.405C96.3539 149.116 94.1479 147.698 91.8839 146.374C92.6945 144.693 92.4744 142.277 92.3593 140.444C92.2691 139.01 92.0845 137.417 91.0016 136.39C90.7469 136.149 90.3562 136.145 90.08 136.303C88.9816 135.666 86.0253 134.881 84.7667 135.042C84.3938 135.09 84.194 135.514 84.479 135.803C85.7492 137.088 88.0582 137.596 89.8429 137.223C91.3538 142.201 90.3624 143.825 91.1861 145.972C88.0523 144.182 85.8937 142.516 83.5402 142.169C81.3445 141.845 79.0372 143.157 77.098 144.021C75.7918 144.603 73.9824 145.294 74.2482 147.003C74.3412 147.601 74.9898 147.712 75.3813 147.334C76.736 146.028 78.408 145.451 80.1311 144.725C81.4452 144.171 82.7185 143.815 84.0627 144.171C84.9579 144.995 85.8888 145.775 86.8278 146.545C85.4684 148.027 83.8945 151.372 83.0416 152.155C82.2539 152.878 80.8269 152.133 79.7965 152.271C77.9245 152.522 82.4058 155.974 84.3991 153.236C85.2192 152.11 87.6157 147.991 87.8688 147.399C93.4971 152.016 93.2641 153.253 95.8437 155.162C88.8872 167.931 90.3552 186.531 103.059 194.134C107.796 196.969 113.479 198.065 118.923 198.301C124.636 198.549 130.834 197.826 136.072 195.385C145.335 191.067 150.622 181.067 150.421 170.994C150.314 165.668 149.218 159.774 146.329 155.212C147.447 154.575 148.473 153.72 149.499 152.964C150.475 152.245 151.767 151.511 152.416 150.462C156.937 151.147 159.778 153.456 164.406 153.108C166.508 152.95 168.503 152.389 170.619 152.726C171.744 152.906 172.176 151.23 171.035 150.97ZM140.468 129.868C140.535 128.77 140.478 127.684 140.272 126.653C141.791 128.581 140.711 129.384 140.468 129.868ZM139.34 118.356C135.995 115.044 129.75 112.129 122.522 111.944C122.431 110.219 122.236 108.513 122.317 106.769C122.385 105.327 122.705 103.902 122.739 102.464C123.926 102.433 125.098 102.539 126.422 102.85C130.058 105.685 131.131 109.426 132.122 113.757C132.357 114.783 134.147 108.653 127.985 103.307C130.169 104.07 132.191 105.312 133.864 106.917C137.069 109.993 138.582 114.084 139.34 118.356ZM121.682 100.448C121.096 100.678 120.445 100.932 119.805 100.945C119.418 100.953 118.699 100.816 118.398 100.446C118.474 100.38 118.492 100.239 118.282 100.217C118.225 99.9966 118.177 99.9479 118.011 100.111C117.431 99.7372 116.787 98.5003 116.695 98.0116C116.65 96.2213 117.174 95.3234 118.269 95.3181C118.35 95.3297 118.427 95.3212 118.5 95.2927C118.617 95.1148 118.844 94.9517 118.969 94.7318C119.57 93.6761 119.264 92.2802 120.633 91.4889C121.469 91.0061 124.232 91.1621 124.336 92.499C124.368 92.9111 124.903 93.3323 125.255 92.9294C127.008 93.5576 127.459 94.5384 126.609 95.8713C126.502 96.1835 126.743 96.4772 127.017 96.576C126.725 97.4442 126.434 98.3126 126.143 99.181C125.906 99.2493 125.715 99.5755 125.885 99.8047C126.139 100.145 123.683 100.782 123.106 100.95C122.592 100.956 122.088 100.989 121.592 101.045C121.693 100.929 121.785 100.802 121.858 100.653C121.912 100.544 121.804 100.4 121.682 100.448ZM118.958 103.1C120.1 102.741 121.286 102.521 122.505 102.469C121.267 105.105 121.214 109.01 122.005 111.936C119.183 111.913 116.375 112.259 113.756 113.193C114.113 111.017 115.189 106.543 118.958 103.1ZM104.044 126.32C102.641 122.869 106.998 118.525 109.344 116.642C118.53 109.267 139.523 114.25 141.133 125.22C140.397 124.401 139.497 123.641 138.631 122.994C138.43 122.741 138.347 122.584 138.1 122.606C128.463 115.751 114.367 115.332 106.929 122.601C106.86 122.548 106.759 122.542 106.679 122.633C106.197 123.183 105.783 123.501 105.545 124.059C104.854 124.854 104.272 125.663 104.044 126.32ZM106.67 126.008C106.778 126.227 107.794 127.063 108.074 127.281C108.023 127.374 108.012 127.488 108.081 127.574C109.549 129.434 112.064 130.769 114.1 131.923C115.831 132.904 117.878 133.974 119.886 134.157C122.799 134.422 125.736 130.748 123.105 128.394C123.037 128.333 122.954 128.317 122.877 128.328C121.221 127.282 120.382 127.304 107.203 125.295C106.959 125.258 106.727 125.456 106.653 125.687C106.623 125.202 106.581 124.706 106.606 124.224C107.508 123.303 108.412 122.497 108.581 122.373C115.58 117.283 127.769 117.048 137.85 124.44C138.152 126.248 138.579 128.014 138.519 129.884C138.058 144.036 118.374 149.991 109.631 137.166C106.149 132.058 106.721 127.283 106.67 126.008ZM122.655 128.736C123.171 130.506 123.211 132.679 120.86 133.149C119.314 133.457 117.285 132.375 115.829 131.595C117.038 131.698 117.716 130.284 117.747 129.243C117.752 129.067 117.51 129.061 117.44 129.186C117.038 129.901 116.952 130.919 115.797 131.471C115.758 131.49 115.755 131.535 115.775 131.566C113.85 130.534 113.925 130.49 111.684 128.951C112.183 128.727 112.648 128.166 112.694 127.32C116.005 127.922 119.336 128.484 122.655 128.736ZM111.349 128.492C111.231 128.411 111.122 128.448 111.056 128.529C110.762 128.336 110.466 128.151 110.166 127.977C110.065 127.841 110.104 127.942 108.675 126.589C109.911 126.81 111.152 127.039 112.396 127.266C112.289 127.518 111.587 128.655 111.349 128.492ZM137.176 139.051C137.957 140.196 138.959 141.368 139.223 142.592C138.234 143.239 136.708 144.679 133.346 144.875C133.201 144.884 133.199 145.101 133.346 145.103C135.236 145.131 137.859 144.57 139.286 143.068C139.396 145.465 135.809 147.322 133.53 148.057C130.118 149.159 126.456 149.04 122.917 148.98C119.442 148.92 115.941 148.836 112.517 148.177C110.273 147.746 107.111 147.206 106.842 144.362C106.75 143.383 106.941 142.438 107.255 141.52C108.011 142.166 109.538 145.187 115.074 145.251C115.181 145.252 115.184 145.107 115.083 145.089C108.621 143.94 108.705 142.243 107.347 141.266C107.683 140.35 108.124 139.46 108.512 138.59C115.644 148.724 130.378 148.197 137.176 139.051ZM120.562 150.36C120.704 150.462 120.892 150.489 121.07 150.356C121.663 149.913 123.083 151.812 123.205 152.251C123.482 153.249 122.766 154.241 121.757 154.347C119.391 154.594 119.048 151.565 120.562 150.36ZM88.7666 146.515C89.4958 146.89 98.3284 151.282 98.3858 151.29C97.7913 152.058 97.2996 152.734 96.6609 153.764C94.3717 151.024 91.6651 148.621 88.7666 146.515ZM138.007 191.985C133.34 195.214 127.53 196.307 121.955 196.474C93.0928 197.338 88.9286 172.443 97.4581 156.077C97.9161 156.26 98.197 155.737 97.9999 155.468C97.958 155.411 97.9135 155.356 97.8713 155.299C99.9514 151.546 102.731 148.195 106.099 145.397C107.029 148.492 110.731 149.028 114.287 149.553C116.041 149.813 117.808 149.953 119.579 150.042C116.586 152.286 119.364 156.893 122.704 155.689C124.643 154.99 125.709 152.318 123.598 150.187C128.308 150.325 133.454 150.437 137.514 147.788C142.616 153.469 146.139 156.406 147.729 166.02C149.355 175.853 146.439 186.15 138.007 191.985ZM145.675 154.247C145.463 153.948 145.248 153.652 145.026 153.36C146.922 152.546 148.74 151.207 150.469 149.89C150.568 149.946 150.669 149.996 150.773 150.041C149.998 150.512 146.15 153.773 145.675 154.247Z" fill="white"/>
<path id="Vector_11" d="M122.442 167.419C124.875 166.006 123.987 161.969 120.937 161.887C120.911 161.833 120.863 161.79 120.787 161.781C118.829 161.558 118.206 164.189 118.568 165.713C118.967 167.397 120.921 168.303 122.442 167.419ZM121.975 166.298C120.172 167.612 119.081 164.976 119.603 163.334C122.669 162.392 123.336 165.305 121.975 166.298Z" fill="white"/>
<path id="Vector_12" d="M119.43 173.86C119.265 174.046 119.247 174.441 119.559 174.508C119.792 174.558 120.027 174.575 120.262 174.582C119.449 175.153 119.153 176.562 119.256 177.577C119.436 179.368 121.333 180.279 122.882 179.43C124.413 178.592 125.077 176.28 124.182 174.764C123.366 173.381 120.622 172.524 119.43 173.86ZM120.828 178.285C119.88 177.511 120.404 175.267 121.56 175.026C121.701 174.997 121.821 174.82 121.649 174.649C121.766 174.669 121.882 174.694 121.998 174.731C124.696 175.588 122.507 179.654 120.828 178.285Z" fill="white"/>
<path id="Vector_13" d="M134.323 149.851C135.584 155.768 139.844 160.609 142.109 166.127C146.199 176.094 144.118 173.989 141.84 177.496C141.798 177.703 141.767 177.911 141.748 178.121C141.018 178.77 140.288 179.418 139.558 180.067C139.041 180.259 138.189 180.003 137.599 180.057C136.171 180.186 135.337 180.934 134.056 181.438C133.887 181.574 133.717 181.709 133.548 181.845C131.561 181.588 130.718 180.645 131.02 179.017C131.042 176.635 131.894 174.997 130.214 157.148C129.998 154.851 129.858 152.312 128.633 150.297C128.007 149.267 130.898 155.639 130.451 174.994C130.404 177.032 129.232 181.64 131.95 182.641C133.019 183.035 133.559 182.506 134.433 181.963C137.506 180.057 138.815 181.113 140.382 180.872C141.407 180.714 141.985 180.228 142.489 179.361C143.261 178.032 141.209 179.116 143.426 176.927C143.808 176.549 144.365 176.382 144.74 175.971C146.448 174.101 145.145 171.278 144.385 169.29C141.787 162.489 137.663 156.476 135.11 149.667C134.933 149.193 134.21 149.322 134.323 149.851Z" fill="white"/>
<path id="Vector_14" d="M136.63 175.427C137.92 169.965 137.703 164.49 135.699 159.229C135.618 159.017 135.333 159.144 135.382 159.351C136.622 164.591 137.024 170.03 136.246 175.376C136.209 175.63 136.574 175.666 136.63 175.427Z" fill="white"/>
</g>
</g>
<g id="Group 2">
<path id="Vector_15" d="M76.0908 89.9691H72.5405L75.2032 87.2404C75.5259 86.9096 75.5259 86.4135 75.2032 86.0828C74.8804 85.752 74.3963 85.752 74.0736 86.0828L70.2812 89.9691H58.6621L60.2759 88.3153H64.9558C65.4399 88.3153 65.7627 87.9846 65.7627 87.4884C65.7627 86.9923 65.4399 86.6616 64.9558 86.6616H61.8896L63.8262 84.6771H72.8632C73.3474 84.6771 73.6701 84.3463 73.6701 83.8502C73.6701 83.3541 73.3474 83.0233 72.8632 83.0233H65.4399L67.6992 80.708H73.5894C74.0736 80.708 74.3963 80.3773 74.3963 79.8812C74.3963 79.385 74.0736 79.0543 73.5894 79.0543H69.313L71.6529 76.6563C71.9757 76.3256 71.9757 75.8295 71.6529 75.4987C71.3302 75.168 70.846 75.168 70.5233 75.4987L68.1833 77.8967V73.5142C68.1833 73.0181 67.8606 72.6873 67.3764 72.6873C66.8923 72.6873 66.5696 73.0181 66.5696 73.5142V79.5504L64.3103 81.8657V74.2584C64.3103 73.7623 63.9875 73.4315 63.5034 73.4315C63.0193 73.4315 62.6965 73.7623 62.6965 74.2584V83.5194L60.76 85.5039V82.3618C60.76 81.8657 60.4372 81.5349 59.9531 81.5349C59.469 81.5349 59.1462 81.8657 59.1462 82.3618V87.1577L57.5325 88.8115V76.9044L61.3248 73.0181C61.6476 72.6873 61.6476 72.1912 61.3248 71.8604C61.0021 71.5297 60.5179 71.5297 60.1952 71.8604L57.5325 74.5891V70.9509C57.5325 70.4547 57.2097 70.124 56.7256 70.124C56.2415 70.124 55.9187 70.4547 55.9187 70.9509V74.5891L53.256 71.7778C52.9332 71.447 52.4491 71.447 52.1264 71.7778C51.8036 72.1085 51.8036 72.6046 52.1264 72.9354L55.9187 76.9044V88.8115L54.3049 87.1577V82.3618C54.3049 81.8657 53.9822 81.5349 53.4981 81.5349C53.0139 81.5349 52.6912 81.8657 52.6912 82.3618V85.5039L50.7547 83.5194V74.2584C50.7547 73.7623 50.4319 73.4315 49.9478 73.4315C49.4636 73.4315 49.1409 73.7623 49.1409 74.2584V81.8657L46.8816 79.5504V73.5142C46.8816 73.0181 46.5589 72.6873 46.0747 72.6873C45.5906 72.6873 45.2679 73.0181 45.2679 73.5142V77.8967L42.9279 75.416C42.6051 75.0853 42.121 75.0853 41.7983 75.416C41.4755 75.7468 41.4755 76.2429 41.7983 76.5736L44.1382 78.9716H39.8617C39.3776 78.9716 39.0549 79.3023 39.0549 79.7985C39.0549 80.2946 39.3776 80.6254 39.8617 80.6254H45.752L48.0113 82.9406H40.5879C40.1038 82.9406 39.7811 83.2714 39.7811 83.7675C39.7811 84.2636 40.1038 84.5944 40.5879 84.5944H49.625L51.5615 86.5789H48.4954C48.0113 86.5789 47.6885 86.9096 47.6885 87.4058C47.6885 87.9019 48.0113 88.2326 48.4954 88.2326H53.1753L54.7891 89.8864H43.17L39.3776 86.0001C39.0549 85.6693 38.5707 85.6693 38.248 86.0001C37.9252 86.3308 37.9252 86.8269 38.248 87.1577L40.9107 89.9691H37.3604C36.8763 89.9691 36.5535 90.2998 36.5535 90.796C36.5535 91.2921 36.8763 91.6228 37.3604 91.6228H40.9107L38.1673 94.3515C37.8445 94.6823 37.8445 95.1784 38.1673 95.5092C38.49 95.8399 38.9742 95.8399 39.2969 95.5092L43.17 91.6228H54.7891L53.1753 93.2766H48.4954C48.0113 93.2766 47.6885 93.6073 47.6885 94.1035C47.6885 94.5996 48.0113 94.9304 48.4954 94.9304H51.5615L49.625 96.9149H40.5879C39.539 96.9149 39.539 98.5686 40.5879 98.5686H48.0113L45.752 100.884H39.8617C39.3776 100.884 39.0549 101.215 39.0549 101.711C39.0549 102.207 39.3776 102.538 39.8617 102.538H44.1382L41.7983 104.936C41.4755 105.266 41.4755 105.762 41.7983 106.093C42.121 106.424 42.6051 106.424 42.9279 106.093L45.2679 103.695V108.078C45.2679 108.574 45.5906 108.905 46.0747 108.905C46.5589 108.905 46.8816 108.574 46.8816 108.078V102.042L49.1409 99.7262V107.334C49.1409 107.83 49.4636 108.16 49.9478 108.16C50.4319 108.16 50.7547 107.83 50.7547 107.334V98.0725L52.6912 96.088V99.2301C52.6912 99.7262 53.0139 100.057 53.4981 100.057C53.9822 100.057 54.3049 99.7262 54.3049 99.2301V94.4342L55.9187 92.7805V104.688L52.1264 108.574C51.8036 108.905 51.8036 109.401 52.1264 109.731C52.9332 110.558 53.9015 109.07 55.9187 107.003V110.641C55.9187 111.137 56.2415 111.468 56.7256 111.468C57.2097 111.468 57.5325 111.137 57.5325 110.641V107.003L60.1952 109.731C60.5179 110.062 61.0021 110.062 61.3248 109.731C61.6476 109.401 61.6476 108.905 61.3248 108.574L57.5325 104.688V92.7805L59.1462 94.4342V99.2301C59.1462 99.7262 59.469 100.057 59.9531 100.057C60.4372 100.057 60.76 99.7262 60.76 99.2301V96.088L62.6965 98.0725V107.334C62.6965 107.83 63.0193 108.16 63.5034 108.16C63.9875 108.16 64.3103 107.83 64.3103 107.334V99.7262L66.5696 102.042V108.078C66.5696 108.574 66.8923 108.905 67.3764 108.905C67.8606 108.905 68.1833 108.574 68.1833 108.078V103.695L70.5233 106.093C70.846 106.424 71.3302 106.424 71.6529 106.093C71.9757 105.762 71.9757 105.266 71.6529 104.936L69.313 102.538H73.5894C74.0736 102.538 74.3963 102.207 74.3963 101.711C74.3963 101.215 74.0736 100.884 73.5894 100.884H67.6992L65.4399 98.5686H72.8632C73.3474 98.5686 73.6701 98.2379 73.6701 97.7417C73.6701 97.2456 73.3474 96.9149 72.8632 96.9149H63.8262L61.8896 94.9304H64.9558C65.4399 94.9304 65.7627 94.5996 65.7627 94.1035C65.7627 93.6073 65.4399 93.2766 64.9558 93.2766H60.2759L58.6621 91.6228H70.2812L74.0736 95.5092C74.3963 95.8399 74.8804 95.8399 75.2032 95.5092C75.5259 95.1784 75.5259 94.6823 75.2032 94.3515L72.5405 91.6228H76.0908C76.5749 91.6228 76.8976 91.2921 76.8976 90.796C76.8976 90.2998 76.5749 89.9691 76.0908 89.9691Z" fill="white"/>
</g>
<g id="Group 3">
<path id="Vector_16" d="M195.255 60.0203H191.705L194.368 57.2916C194.69 56.9608 194.69 56.4647 194.368 56.134C194.045 55.8032 193.561 55.8032 193.238 56.134L189.446 60.0203H177.827L179.44 58.3665H184.12C184.604 58.3665 184.927 58.0358 184.927 57.5397C184.927 57.0435 184.604 56.7128 184.12 56.7128H181.054L182.991 54.7283H192.028C192.512 54.7283 192.835 54.3975 192.835 53.9014C192.835 53.4053 192.512 53.0745 192.028 53.0745H184.604L186.864 50.7593H192.754C193.238 50.7593 193.561 50.4285 193.561 49.9324C193.561 49.4362 193.238 49.1055 192.754 49.1055H188.477L190.817 46.7075C191.14 46.3768 191.14 45.8807 190.817 45.5499C190.495 45.2192 190.011 45.2192 189.688 45.5499L187.348 47.9479V43.5654C187.348 43.0693 187.025 42.7385 186.541 42.7385C186.057 42.7385 185.734 43.0693 185.734 43.5654V49.6016L183.475 51.9169V44.3096C183.475 43.8135 183.152 43.4827 182.668 43.4827C182.184 43.4827 181.861 43.8135 181.861 44.3096V53.5706L179.924 55.5551V52.413C179.924 51.9169 179.602 51.5861 179.118 51.5861C178.633 51.5861 178.311 51.9169 178.311 52.413V57.2089L176.697 58.8627V46.9556L180.489 43.0693C180.812 42.7385 180.812 42.2424 180.489 41.9117C180.167 41.5809 179.682 41.5809 179.36 41.9117L176.697 44.6404V41.0021C176.697 40.506 176.374 40.1752 175.89 40.1752C175.406 40.1752 175.083 40.506 175.083 41.0021V44.6404L172.42 41.829C172.098 41.4982 171.614 41.4982 171.291 41.829C170.968 42.1597 170.968 42.6558 171.291 42.9866L175.083 46.9556V58.8627L173.469 57.2089V52.413C173.469 51.9169 173.147 51.5861 172.663 51.5861C172.178 51.5861 171.856 51.9169 171.856 52.413V55.5551L169.919 53.5706V44.3096C169.919 43.8135 169.596 43.4827 169.112 43.4827C168.628 43.4827 168.305 43.8135 168.305 44.3096V51.9169L166.046 49.6016V43.5654C166.046 43.0693 165.723 42.7385 165.239 42.7385C164.755 42.7385 164.432 43.0693 164.432 43.5654V47.9479L162.092 45.4672C161.77 45.1365 161.286 45.1365 160.963 45.4672C160.64 45.798 160.64 46.2941 160.963 46.6249L163.303 49.0228H159.026C158.542 49.0228 158.219 49.3536 158.219 49.8497C158.219 50.3458 158.542 50.6766 159.026 50.6766H164.916L167.176 52.9918H159.752C159.268 52.9918 158.946 53.3226 158.946 53.8187C158.946 54.3148 159.268 54.6456 159.752 54.6456H168.79L170.726 56.6301H167.66C167.176 56.6301 166.853 56.9608 166.853 57.457C166.853 57.9531 167.176 58.2838 167.66 58.2838H172.34L173.954 59.9376H162.334L158.542 56.0513C158.219 55.7205 157.735 55.7205 157.412 56.0513C157.09 56.382 157.09 56.8782 157.412 57.2089L160.075 60.0203H156.525C156.041 60.0203 155.718 60.351 155.718 60.8472C155.718 61.3433 156.041 61.6741 156.525 61.6741H160.075L157.332 64.4028C157.009 64.7335 157.009 65.2296 157.332 65.5604C157.655 65.8911 158.139 65.8911 158.461 65.5604L162.334 61.6741H173.954L172.34 63.3278H167.66C167.176 63.3278 166.853 63.6586 166.853 64.1547C166.853 64.6508 167.176 64.9816 167.66 64.9816H170.726L168.79 66.9661H159.752C158.703 66.9661 158.703 68.6198 159.752 68.6198H167.176L164.916 70.9351H159.026C158.542 70.9351 158.219 71.2658 158.219 71.762C158.219 72.2581 158.542 72.5889 159.026 72.5889H163.303L160.963 74.9868C160.64 75.3175 160.64 75.8137 160.963 76.1444C161.286 76.4752 161.77 76.4752 162.092 76.1444L164.432 73.7465V78.1289C164.432 78.6251 164.755 78.9558 165.239 78.9558C165.723 78.9558 166.046 78.6251 166.046 78.1289V72.0927L168.305 69.7775V77.3847C168.305 77.8809 168.628 78.2116 169.112 78.2116C169.596 78.2116 169.919 77.8809 169.919 77.3847V68.1237L171.856 66.1392V69.2813C171.856 69.7775 172.178 70.1082 172.663 70.1082C173.147 70.1082 173.469 69.7775 173.469 69.2813V64.4854L175.083 62.8317V74.7387L171.291 78.6251C170.968 78.9558 170.968 79.4519 171.291 79.7827C172.098 80.6096 173.066 79.1212 175.083 77.054V80.6923C175.083 81.1884 175.406 81.5191 175.89 81.5191C176.374 81.5191 176.697 81.1884 176.697 80.6923V77.054L179.36 79.7827C179.682 80.1134 180.167 80.1134 180.489 79.7827C180.812 79.4519 180.812 78.9558 180.489 78.6251L176.697 74.7387V62.8317L178.311 64.4854V69.2813C178.311 69.7775 178.633 70.1082 179.118 70.1082C179.602 70.1082 179.924 69.7775 179.924 69.2813V66.1392L181.861 68.1237V77.3847C181.861 77.8809 182.184 78.2116 182.668 78.2116C183.152 78.2116 183.475 77.8809 183.475 77.3847V69.7775L185.734 72.0927V78.1289C185.734 78.6251 186.057 78.9558 186.541 78.9558C187.025 78.9558 187.348 78.6251 187.348 78.1289V73.7465L189.688 76.1444C190.011 76.4752 190.495 76.4752 190.817 76.1444C191.14 75.8137 191.14 75.3175 190.817 74.9868L188.477 72.5889H192.754C193.238 72.5889 193.561 72.2581 193.561 71.762C193.561 71.2658 193.238 70.9351 192.754 70.9351H186.864L184.604 68.6198H192.028C192.512 68.6198 192.835 68.2891 192.835 67.793C192.835 67.2968 192.512 66.9661 192.028 66.9661H182.991L181.054 64.9816H184.12C184.604 64.9816 184.927 64.6508 184.927 64.1547C184.927 63.6586 184.604 63.3278 184.12 63.3278H179.44L177.827 61.6741H189.446L193.238 65.5604C193.561 65.8911 194.045 65.8911 194.368 65.5604C194.69 65.2296 194.69 64.7335 194.368 64.4028L191.705 61.6741H195.255C195.739 61.6741 196.062 61.3433 196.062 60.8472C196.062 60.351 195.739 60.0203 195.255 60.0203Z" fill="white"/>
</g>
</g>
</svg>
